# MagicaVoxel @ Ephtracy
g Player_walk
# material
mtllib Player_walk.mtl
usemtl palette

# normals
vn -1 0 0
vn 1 0 0
vn 0 0 1
vn 0 0 -1
vn 0 -1 0
vn 0 1 0

# texcoords
vt 0.501953 0.5
vt 0.689453 0.5
vt 0.876953 0.5
vt 0.994141 0.5

# verts
v -3.5 3 0.5
v -3.5 3 -0.5
v -3.5 4 0.5
v -3.5 4 -0.5
v -3.5 5 0.5
v -3.5 5 -0.5
v -2.5 2 0.5
v -2.5 2 -0.5
v -2.5 3 0.5
v -2.5 3 -0.5
v -2.5 5 0.5
v -2.5 5 -0.5
v -2.5 8 0.5
v -2.5 8 -0.5
v -1.5 0 0.5
v -1.5 0 -0.5
v -1.5 1 0.5
v -1.5 1 -0.5
v -1.5 2 0.5
v -1.5 2 -0.5
v -1.5 8 0.5
v -1.5 8 -0.5
v -1.5 9 0.5
v -1.5 9 -0.5
v 0.5 0 0.5
v 0.5 0 -0.5
v 0.5 1 0.5
v 0.5 1 -0.5
v 1.5 1 0.5
v 1.5 1 -0.5
v 1.5 2 0.5
v 1.5 2 -0.5
v 1.5 8 0.5
v 1.5 8 -0.5
v 1.5 9 0.5
v 1.5 9 -0.5
v 2.5 2 0.5
v 2.5 2 -0.5
v 2.5 3 0.5
v 2.5 3 -0.5
v 2.5 5 0.5
v 2.5 5 -0.5
v 2.5 6 0.5
v 2.5 6 -0.5
v 2.5 7 0.5
v 2.5 7 -0.5
v 2.5 8 0.5
v 2.5 8 -0.5
v 3.5 3 0.5
v 3.5 3 -0.5
v 3.5 4 0.5
v 3.5 4 -0.5
v 3.5 5 0.5
v 3.5 5 -0.5
v -3.5 3 0.5
v -3.5 4 0.5
v -3.5 5 0.5
v -2.5 2 0.5
v -2.5 3 0.5
v -2.5 4 0.5
v -2.5 5 0.5
v -2.5 8 0.5
v -1.5 0 0.5
v -1.5 1 0.5
v -1.5 2 0.5
v -1.5 8 0.5
v -1.5 9 0.5
v -0.5 6 0.5
v -0.5 7 0.5
v 0.5 0 0.5
v 0.5 1 0.5
v 0.5 6 0.5
v 0.5 7 0.5
v 1.5 1 0.5
v 1.5 2 0.5
v 1.5 6 0.5
v 1.5 7 0.5
v 1.5 8 0.5
v 1.5 9 0.5
v 2.5 2 0.5
v 2.5 3 0.5
v 2.5 4 0.5
v 2.5 5 0.5
v 2.5 6 0.5
v 2.5 7 0.5
v 2.5 8 0.5
v 3.5 3 0.5
v 3.5 4 0.5
v 3.5 5 0.5
v -3.5 3 -0.5
v -3.5 4 -0.5
v -3.5 5 -0.5
v -2.5 2 -0.5
v -2.5 3 -0.5
v -2.5 4 -0.5
v -2.5 5 -0.5
v -2.5 8 -0.5
v -1.5 0 -0.5
v -1.5 1 -0.5
v -1.5 2 -0.5
v -1.5 8 -0.5
v -1.5 9 -0.5
v -0.5 6 -0.5
v -0.5 7 -0.5
v 0.5 0 -0.5
v 0.5 1 -0.5
v 0.5 6 -0.5
v 0.5 7 -0.5
v 1.5 1 -0.5
v 1.5 2 -0.5
v 1.5 6 -0.5
v 1.5 7 -0.5
v 1.5 8 -0.5
v 1.5 9 -0.5
v 2.5 2 -0.5
v 2.5 3 -0.5
v 2.5 4 -0.5
v 2.5 5 -0.5
v 2.5 6 -0.5
v 2.5 7 -0.5
v 2.5 8 -0.5
v 3.5 3 -0.5
v 3.5 4 -0.5
v 3.5 5 -0.5
v -1.5 0 0.5
v 0.5 0 0.5
v -1.5 0 -0.5
v 0.5 0 -0.5
v 0.5 1 0.5
v 1.5 1 0.5
v 0.5 1 -0.5
v 1.5 1 -0.5
v -2.5 2 0.5
v -1.5 2 0.5
v 1.5 2 0.5
v 2.5 2 0.5
v -2.5 2 -0.5
v -1.5 2 -0.5
v 1.5 2 -0.5
v 2.5 2 -0.5
v -3.5 3 0.5
v -2.5 3 0.5
v 2.5 3 0.5
v 3.5 3 0.5
v -3.5 3 -0.5
v -2.5 3 -0.5
v 2.5 3 -0.5
v 3.5 3 -0.5
v -3.5 5 0.5
v -2.5 5 0.5
v 2.5 5 0.5
v 3.5 5 0.5
v -3.5 5 -0.5
v -2.5 5 -0.5
v 2.5 5 -0.5
v 3.5 5 -0.5
v -2.5 8 0.5
v -1.5 8 0.5
v 1.5 8 0.5
v 2.5 8 0.5
v -2.5 8 -0.5
v -1.5 8 -0.5
v 1.5 8 -0.5
v 2.5 8 -0.5
v -1.5 9 0.5
v 1.5 9 0.5
v -1.5 9 -0.5
v 1.5 9 -0.5

# faces
f 3/1/1 2/1/1 1/1/1
f 4/1/1 2/1/1 3/1/1
f 5/4/1 4/4/1 3/4/1
f 6/4/1 4/4/1 5/4/1
f 9/4/1 8/4/1 7/4/1
f 10/4/1 8/4/1 9/4/1
f 13/1/1 12/1/1 11/1/1
f 14/1/1 12/1/1 13/1/1
f 17/1/1 16/1/1 15/1/1
f 18/1/1 16/1/1 17/1/1
f 19/4/1 18/4/1 17/4/1
f 20/4/1 18/4/1 19/4/1
f 23/3/1 22/3/1 21/3/1
f 24/3/1 22/3/1 23/3/1
f 25/1/2 26/1/2 27/1/2
f 27/1/2 26/1/2 28/1/2
f 29/4/2 30/4/2 31/4/2
f 31/4/2 30/4/2 32/4/2
f 33/3/2 34/3/2 35/3/2
f 35/3/2 34/3/2 36/3/2
f 37/4/2 38/4/2 39/4/2
f 39/4/2 38/4/2 40/4/2
f 41/1/2 42/1/2 43/1/2
f 43/1/2 42/1/2 44/1/2
f 43/2/2 44/2/2 45/2/2
f 45/2/2 44/2/2 46/2/2
f 45/1/2 46/1/2 47/1/2
f 47/1/2 46/1/2 48/1/2
f 49/1/2 50/1/2 51/1/2
f 51/1/2 50/1/2 52/1/2
f 51/4/2 52/4/2 53/4/2
f 53/4/2 52/4/2 54/4/2
f 59/1/3 56/1/3 55/1/3
f 60/4/3 57/4/3 56/4/3
f 60/1/3 56/1/3 59/1/3
f 61/4/3 57/4/3 60/4/3
f 65/4/3 59/4/3 58/4/3
f 65/4/3 60/4/3 59/4/3
f 65/4/3 61/4/3 60/4/3
f 66/1/3 62/1/3 61/1/3
f 68/1/3 66/1/3 61/1/3
f 69/1/3 66/1/3 68/1/3
f 70/1/3 64/1/3 63/1/3
f 71/4/3 65/4/3 64/4/3
f 71/1/3 64/1/3 70/1/3
f 72/1/3 68/1/3 61/1/3
f 72/2/3 69/2/3 68/2/3
f 73/1/3 66/1/3 69/1/3
f 73/2/3 69/2/3 72/2/3
f 74/4/3 65/4/3 71/4/3
f 75/4/3 61/4/3 65/4/3
f 75/4/3 65/4/3 74/4/3
f 76/1/3 72/1/3 61/1/3
f 76/1/3 73/1/3 72/1/3
f 77/1/3 66/1/3 73/1/3
f 77/1/3 73/1/3 76/1/3
f 78/3/3 67/3/3 66/3/3
f 78/1/3 66/1/3 77/1/3
f 79/3/3 67/3/3 78/3/3
f 80/4/3 61/4/3 75/4/3
f 81/4/3 61/4/3 80/4/3
f 82/4/3 61/4/3 81/4/3
f 83/1/3 76/1/3 61/1/3
f 83/4/3 61/4/3 82/4/3
f 84/2/3 77/2/3 76/2/3
f 84/1/3 76/1/3 83/1/3
f 85/1/3 78/1/3 77/1/3
f 85/2/3 77/2/3 84/2/3
f 86/1/3 78/1/3 85/1/3
f 87/1/3 82/1/3 81/1/3
f 88/4/3 83/4/3 82/4/3
f 88/1/3 82/1/3 87/1/3
f 89/4/3 83/4/3 88/4/3
f 90/1/4 91/1/4 94/1/4
f 91/4/4 92/4/4 95/4/4
f 94/1/4 91/1/4 95/1/4
f 95/4/4 92/4/4 96/4/4
f 93/4/4 94/4/4 100/4/4
f 94/4/4 95/4/4 100/4/4
f 95/4/4 96/4/4 100/4/4
f 96/1/4 97/1/4 101/1/4
f 96/1/4 101/1/4 103/1/4
f 103/1/4 101/1/4 104/1/4
f 98/1/4 99/1/4 105/1/4
f 99/4/4 100/4/4 106/4/4
f 105/1/4 99/1/4 106/1/4
f 96/1/4 103/1/4 107/1/4
f 103/2/4 104/2/4 107/2/4
f 104/1/4 101/1/4 108/1/4
f 107/2/4 104/2/4 108/2/4
f 106/4/4 100/4/4 109/4/4
f 100/4/4 96/4/4 110/4/4
f 109/4/4 100/4/4 110/4/4
f 96/1/4 107/1/4 111/1/4
f 107/1/4 108/1/4 111/1/4
f 108/1/4 101/1/4 112/1/4
f 111/1/4 108/1/4 112/1/4
f 101/3/4 102/3/4 113/3/4
f 112/1/4 101/1/4 113/1/4
f 113/3/4 102/3/4 114/3/4
f 110/4/4 96/4/4 115/4/4
f 115/4/4 96/4/4 116/4/4
f 116/4/4 96/4/4 117/4/4
f 96/1/4 111/1/4 118/1/4
f 117/4/4 96/4/4 118/4/4
f 111/2/4 112/2/4 119/2/4
f 118/1/4 111/1/4 119/1/4
f 112/1/4 113/1/4 120/1/4
f 119/2/4 112/2/4 120/2/4
f 120/1/4 113/1/4 121/1/4
f 116/1/4 117/1/4 122/1/4
f 117/4/4 118/4/4 123/4/4
f 122/1/4 117/1/4 123/1/4
f 123/4/4 118/4/4 124/4/4
f 127/1/5 126/1/5 125/1/5
f 128/1/5 126/1/5 127/1/5
f 131/4/5 130/4/5 129/4/5
f 132/4/5 130/4/5 131/4/5
f 137/4/5 134/4/5 133/4/5
f 138/4/5 134/4/5 137/4/5
f 139/4/5 136/4/5 135/4/5
f 140/4/5 136/4/5 139/4/5
f 145/1/5 142/1/5 141/1/5
f 146/1/5 142/1/5 145/1/5
f 147/1/5 144/1/5 143/1/5
f 148/1/5 144/1/5 147/1/5
f 149/4/6 150/4/6 153/4/6
f 153/4/6 150/4/6 154/4/6
f 151/4/6 152/4/6 155/4/6
f 155/4/6 152/4/6 156/4/6
f 157/1/6 158/1/6 161/1/6
f 161/1/6 158/1/6 162/1/6
f 159/1/6 160/1/6 163/1/6
f 163/1/6 160/1/6 164/1/6
f 165/3/6 166/3/6 167/3/6
f 167/3/6 166/3/6 168/3/6
